<svg xmlns="http://www.w3.org/2000/svg" viewBox="0 0 512 512">
  <defs>
    <radialGradient id="g" cx="36%" cy="30%" r="80%">
      <stop offset="0%"  stop-color="#f7d28a"/>
      <stop offset="65%" stop-color="#c2843a"/>
      <stop offset="100%" stop-color="#7e5117"/>
    </radialGradient>
  </defs>
  <rect width="512" height="512" rx="112" fill="#f4efe6"/>
  <circle cx="256" cy="256" r="160" fill="url(#g)"/>
  <path d="M232 184h48a40 40 0 0 1 40 40v32H192v-32a40 40 0 0 1 40-40z" fill="#fff" opacity="0.95"/>
  <path d="M180 256h152l-12 96a32 32 0 0 1-32 28H224a32 32 0 0 1-32-28z" fill="#fff" opacity="0.95"/>
  <path d="M232 304v44M256 304v44M280 304v44" stroke="#7e5117" stroke-width="6" stroke-linecap="round" fill="none" opacity="0.9"/>
  <path d="M380 132l8 22 22 8-22 8-8 22-8-22-22-8 22-8z" fill="#fff" opacity="0.95"/>
</svg>
